{
  "accessors": [
    {
      "bufferView": 2,
      "componentType": 5126,
      "count": 65532,
      "max": [
        37.83083724975586,
        90.9659194946289,
        21.206819534301758
      ],
      "min": [
        -37.28533172607422,
        -0.011544355191290379,
        -13.379739761352539
      ],
      "type": "VEC3"
    },
    {
      "bufferView": 2,
      "byteOffset": 786384,
      "componentType": 5126,
      "count": 65532,
      "max": [
        0.999947190284729,
        0.9999929666519165,
        0.999995768070221
      ],
      "min": [
        -0.9999154210090637,
        -0.9999948740005493,
        -0.9999995231628418
      ],
      "type": "VEC3"
    },
    {
      "bufferView": 1,
      "componentType": 5126,
      "count": 65532,
      "max": [
        0.9792254567146301,
        0.9966527223587036
      ],
      "min": [
        0.006271722260862589,
        0.004702543839812279
      ],
      "type": "VEC2"
    },
    {
      "bufferView": 1,
      "byteOffset": 524256,
      "componentType": 5126,
      "count": 65532,
      "max": [
        2.1038525104522705,
        1.3854156732559204
      ],
      "min": [
        -1.37148118019104,
        -0.0007597208023071289
      ],
      "type": "VEC2"
    },
    {
      "bufferView": 1,
      "byteOffset": 1048512,
      "componentType": 5126,
      "count": 65532,
      "max": [
        2.1038525104522705,
        1.3854156732559204
      ],
      "min": [
        -1.37148118019104,
        -0.0007597208023071289
      ],
      "type": "VEC2"
    },
    {
      "bufferView": 1,
      "byteOffset": 1572768,
      "componentType": 5126,
      "count": 65532,
      "max": [
        2.1038525104522705,
        2.026793956756592
      ],
      "min": [
        -1.8582041263580322,
        -0.0007597208023071289
      ],
      "type": "VEC2"
    },
    {
      "bufferView": 1,
      "byteOffset": 2097024,
      "componentType": 5126,
      "count": 65532,
      "max": [
        0.9792254567146301,
        0.9966527223587036
      ],
      "min": [
        0.006271722260862589,
        0.004702543839812279
      ],
      "type": "VEC2"
    },
    {
      "bufferView": 1,
      "byteOffset": 2621280,
      "componentType": 5126,
      "count": 65532,
      "max": [
        2.1038525104522705,
        1.3854156732559204
      ],
      "min": [
        -1.37148118019104,
        -0.0007597208023071289
      ],
      "type": "VEC2"
    },
    {
      "bufferView": 1,
      "byteOffset": 3145536,
      "componentType": 5126,
      "count": 65532,
      "max": [
        1.0,
        1.0
      ],
      "min": [
        -2.5747453946678434e-08,
        -8.371266597669361e-14
      ],
      "type": "VEC2"
    },
    {
      "bufferView": 1,
      "byteOffset": 3669792,
      "componentType": 5126,
      "count": 65532,
      "max": [
        2.1038525104522705,
        1.3854156732559204
      ],
      "min": [
        -1.37148118019104,
        -0.0007597208023071289
      ],
      "type": "VEC2"
    },
    {
      "bufferView": 1,
      "byteOffset": 4194048,
      "componentType": 5126,
      "count": 65532,
      "max": [
        1.0010029077529907,
        1.0000313520431519
      ],
      "min": [
        -5.543231964111328e-05,
        -1.3232231140136719e-05
      ],
      "type": "VEC2"
    },
    {
      "bufferView": 0,
      "componentType": 5125,
      "count": 129327,
      "type": "SCALAR"
    },
    {
      "bufferView": 2,
      "byteOffset": 1572768,
      "componentType": 5126,
      "count": 33780,
      "max": [
        11.151569366455078,
        90.9659194946289,
        22.160297393798828
      ],
      "min": [
        -13.394773483276367,
        -0.011576268821954727,
        -13.637293815612793
      ],
      "type": "VEC3"
    },
    {
      "bufferView": 2,
      "byteOffset": 1978128,
      "componentType": 5126,
      "count": 33780,
      "max": [
        0.9994762539863586,
        0.9999930262565613,
        0.9999827146530151
      ],
      "min": [
        -0.9999200105667114,
        -0.9999948740005493,
        -0.9998526573181152
      ],
      "type": "VEC3"
    },
    {
      "bufferView": 1,
      "byteOffset": 4718304,
      "componentType": 5126,
      "count": 33780,
      "max": [
        0.9074633121490479,
        0.8006903529167175
      ],
      "min": [
        0.012324929237365723,
        0.004702552687376738
      ],
      "type": "VEC2"
    },
    {
      "bufferView": 1,
      "byteOffset": 4988544,
      "componentType": 5126,
      "count": 33780,
      "max": [
        1.0246416330337524,
        1.0222374200820923
      ],
      "min": [
        -0.017507100477814674,
        -0.023812640458345413
      ],
      "type": "VEC2"
    },
    {
      "bufferView": 1,
      "byteOffset": 5258784,
      "componentType": 5126,
      "count": 33780,
      "max": [
        1.0246416330337524,
        1.0222374200820923
      ],
      "min": [
        -0.017507100477814674,
        -0.023812640458345413
      ],
      "type": "VEC2"
    },
    {
      "bufferView": 1,
      "byteOffset": 5529024,
      "componentType": 5126,
      "count": 33780,
      "max": [
        1.0246416330337524,
        1.0222374200820923
      ],
      "min": [
        -0.017507100477814674,
        -0.023812640458345413
      ],
      "type": "VEC2"
    },
    {
      "bufferView": 1,
      "byteOffset": 5799264,
      "componentType": 5126,
      "count": 33780,
      "max": [
        0.9074633121490479,
        0.8006903529167175
      ],
      "min": [
        0.012324929237365723,
        0.004702552687376738
      ],
      "type": "VEC2"
    },
    {
      "bufferView": 1,
      "byteOffset": 6069504,
      "componentType": 5126,
      "count": 33780,
      "max": [
        1.0246416330337524,
        1.0222374200820923
      ],
      "min": [
        -0.017507100477814674,
        -0.023812640458345413
      ],
      "type": "VEC2"
    },
    {
      "bufferView": 1,
      "byteOffset": 6339744,
      "componentType": 5126,
      "count": 33780,
      "max": [
        1.0,
        1.0
      ],
      "min": [
        -2.9489456210285425e-08,
        -8.677687901581521e-09
      ],
      "type": "VEC2"
    },
    {
      "bufferView": 1,
      "byteOffset": 6609984,
      "componentType": 5126,
      "count": 33780,
      "max": [
        1.0246416330337524,
        1.0222374200820923
      ],
      "min": [
        -0.017507100477814674,
        -0.023812640458345413
      ],
      "type": "VEC2"
    },
    {
      "bufferView": 1,
      "byteOffset": 6880224,
      "componentType": 5126,
      "count": 33780,
      "max": [
        1.0246416330337524,
        1.0222374200820923
      ],
      "min": [
        -0.017507100477814674,
        -0.023812640458345413
      ],
      "type": "VEC2"
    },
    {
      "bufferView": 0,
      "byteOffset": 517308,
      "componentType": 5125,
      "count": 61335,
      "type": "SCALAR"
    },
    {
      "bufferView": 2,
      "byteOffset": 2383488,
      "componentType": 5126,
      "count": 42,
      "max": [
        5.977312088012695,
        85.28435516357422,
        21.278602600097656
      ],
      "min": [
        -7.5118207931518555,
        78.59937286376953,
        19.67522621154785
      ],
      "type": "VEC3"
    },
    {
      "bufferView": 2,
      "byteOffset": 2383992,
      "componentType": 5126,
      "count": 42,
      "max": [
        0.05000432953238487,
        0.140527606010437,
        0.9947158694267273
      ],
      "min": [
        0.03401651233434677,
        0.09686773270368576,
        0.9888132810592651
      ],
      "type": "VEC3"
    },
    {
      "bufferView": 1,
      "byteOffset": 7150464,
      "componentType": 5126,
      "count": 42,
      "max": [
        0.9290730357170105,
        0.162969708442688
      ],
      "min": [
        0.7714644074440002,
        0.0053610894829034805
      ],
      "type": "VEC2"
    },
    {
      "bufferView": 1,
      "byteOffset": 7150800,
      "componentType": 5126,
      "count": 42,
      "max": [
        0.9290730357170105,
        0.162969708442688
      ],
      "min": [
        0.7714644074440002,
        0.0053610894829034805
      ],
      "type": "VEC2"
    },
    {
      "bufferView": 1,
      "byteOffset": 7151136,
      "componentType": 5126,
      "count": 42,
      "max": [
        0.0,
        0.0
      ],
      "min": [
        0.0,
        0.0
      ],
      "type": "VEC2"
    },
    {
      "bufferView": 1,
      "byteOffset": 7151472,
      "componentType": 5126,
      "count": 42,
      "max": [
        0.0,
        0.0
      ],
      "min": [
        0.0,
        0.0
      ],
      "type": "VEC2"
    },
    {
      "bufferView": 1,
      "byteOffset": 7151808,
      "componentType": 5126,
      "count": 42,
      "max": [
        0.0,
        0.0
      ],
      "min": [
        0.0,
        0.0
      ],
      "type": "VEC2"
    },
    {
      "bufferView": 1,
      "byteOffset": 7152144,
      "componentType": 5126,
      "count": 42,
      "max": [
        0.0,
        0.0
      ],
      "min": [
        0.0,
        0.0
      ],
      "type": "VEC2"
    },
    {
      "bufferView": 1,
      "byteOffset": 7152480,
      "componentType": 5126,
      "count": 42,
      "max": [
        0.0,
        0.0
      ],
      "min": [
        0.0,
        0.0
      ],
      "type": "VEC2"
    },
    {
      "bufferView": 1,
      "byteOffset": 7152816,
      "componentType": 5126,
      "count": 42,
      "max": [
        0.0,
        0.0
      ],
      "min": [
        0.0,
        0.0
      ],
      "type": "VEC2"
    },
    {
      "bufferView": 1,
      "byteOffset": 7153152,
      "componentType": 5126,
      "count": 42,
      "max": [
        0.0,
        0.0
      ],
      "min": [
        0.0,
        0.0
      ],
      "type": "VEC2"
    },
    {
      "bufferView": 0,
      "byteOffset": 762648,
      "componentType": 5125,
      "count": 120,
      "type": "SCALAR"
    }
  ],
  "asset": {
    "extras": {
      "author": "VRCJared (https://sketchfab.com/VRCJared)",
      "license": "CC-BY-4.0 (http://creativecommons.org/licenses/by/4.0/)",
      "source": "https://sketchfab.com/3d-models/ben-treasure-planet-0dde37fe5141404f92ebccdbd5cb5792",
      "title": "BEN (Treasure Planet)"
    },
    "generator": "Sketchfab-12.68.0",
    "version": "2.0"
  },
  "bufferViews": [
    {
      "buffer": 0,
      "byteLength": 763128,
      "name": "floatBufferViews",
      "target": 34963
    },
    {
      "buffer": 0,
      "byteLength": 7153488,
      "byteOffset": 763128,
      "byteStride": 8,
      "name": "floatBufferViews",
      "target": 34962
    },
    {
      "buffer": 0,
      "byteLength": 2384496,
      "byteOffset": 7916616,
      "byteStride": 12,
      "name": "floatBufferViews",
      "target": 34962
    }
  ],
  "buffers": [
    {
      "byteLength": 10301112,
      "uri": "scene.bin"
    }
  ],
  "images": [
    {
      "uri": "textures/phong5_baseColor.png"
    },
    {
      "uri": "textures/phong5_emissive.png"
    },
    {
      "uri": "textures/phong6_baseColor.png"
    }
  ],
  "materials": [
    {
      "doubleSided": true,
      "emissiveFactor": [
        1.0,
        1.0,
        1.0
      ],
      "emissiveTexture": {
        "index": 1
      },
      "name": "phong5",
      "pbrMetallicRoughness": {
        "baseColorTexture": {
          "index": 0
        },
        "metallicFactor": 0.0
      }
    },
    {
      "alphaMode": "BLEND",
      "doubleSided": true,
      "name": "phong6",
      "pbrMetallicRoughness": {
        "baseColorTexture": {
          "index": 2
        },
        "metallicFactor": 0.0
      }
    }
  ],
  "meshes": [
    {
      "name": "BEN_NOBONES_phong5_0",
      "primitives": [
        {
          "attributes": {
            "NORMAL": 1,
            "POSITION": 0,
            "TEXCOORD_0": 2,
            "TEXCOORD_1": 3,
            "TEXCOORD_2": 4,
            "TEXCOORD_3": 5,
            "TEXCOORD_4": 6,
            "TEXCOORD_5": 7,
            "TEXCOORD_6": 8,
            "TEXCOORD_7": 9,
            "TEXCOORD_8": 10
          },
          "indices": 11,
          "material": 0,
          "mode": 4
        }
      ]
    },
    {
      "name": "BEN_NOBONES_phong5_0",
      "primitives": [
        {
          "attributes": {
            "NORMAL": 13,
            "POSITION": 12,
            "TEXCOORD_0": 14,
            "TEXCOORD_1": 15,
            "TEXCOORD_2": 16,
            "TEXCOORD_3": 17,
            "TEXCOORD_4": 18,
            "TEXCOORD_5": 19,
            "TEXCOORD_6": 20,
            "TEXCOORD_7": 21,
            "TEXCOORD_8": 22
          },
          "indices": 23,
          "material": 0,
          "mode": 4
        }
      ]
    },
    {
      "name": "BEN_NOBONES_phong6_0",
      "primitives": [
        {
          "attributes": {
            "NORMAL": 25,
            "POSITION": 24,
            "TEXCOORD_0": 26,
            "TEXCOORD_1": 27,
            "TEXCOORD_2": 28,
            "TEXCOORD_3": 29,
            "TEXCOORD_4": 30,
            "TEXCOORD_5": 31,
            "TEXCOORD_6": 32,
            "TEXCOORD_7": 33,
            "TEXCOORD_8": 34
          },
          "indices": 35,
          "material": 1,
          "mode": 4
        }
      ]
    }
  ],
  "nodes": [
    {
      "children": [
        1
      ],
      "matrix": [
        1.83381986618042,
        0.0,
        0.0,
        0.0,
        0.0,
        4.071898076897051e-16,
        -1.83381986618042,
        0.0,
        0.0,
        1.83381986618042,
        4.071898076897051e-16,
        0.0,
        0.0,
        0.0,
        0.0,
        1.0
      ],
      "name": "Sketchfab_model"
    },
    {
      "children": [
        2
      ],
      "matrix": [
        0.009999999776482582,
        0.0,
        0.0,
        0.0,
        0.0,
        0.0,
        0.009999999776482582,
        0.0,
        0.0,
        -0.009999999776482582,
        0.0,
        0.0,
        0.0,
        0.0,
        0.0,
        1.0
      ],
      "name": "BEN Posed NO BONES.fbx"
    },
    {
      "children": [
        3
      ],
      "name": "RootNode"
    },
    {
      "children": [
        4,
        5,
        6
      ],
      "name": "BEN_NOBONES"
    },
    {
      "mesh": 0,
      "name": "BEN_NOBONES_phong5_0"
    },
    {
      "mesh": 1,
      "name": "BEN_NOBONES_phong5_0"
    },
    {
      "mesh": 2,
      "name": "BEN_NOBONES_phong6_0"
    }
  ],
  "samplers": [
    {
      "magFilter": 9729,
      "minFilter": 9987,
      "wrapS": 10497,
      "wrapT": 10497
    }
  ],
  "scene": 0,
  "scenes": [
    {
      "name": "Sketchfab_Scene",
      "nodes": [
        0
      ]
    }
  ],
  "textures": [
    {
      "sampler": 0,
      "source": 0
    },
    {
      "sampler": 0,
      "source": 1
    },
    {
      "sampler": 0,
      "source": 2
    }
  ]
}
