<svg xmlns="http://www.w3.org/2000/svg" version="1.1" xmlns:xlink="http://www.w3.org/1999/xlink" xmlns:svgjs="http://svgjs.dev/svgjs" width="2000" height="1500" viewBox="0 0 2000 1500"><rect width="2000" height="1500" fill="#031e30"></rect><g transform="matrix(0.75,0,0,0.75,249.090909090909,282.7536437246963)"><svg viewBox="0 0 396 247" data-background-color="#031e30" preserveAspectRatio="xMidYMid meet" height="1247" width="2000" xmlns="http://www.w3.org/2000/svg" xmlns:xlink="http://www.w3.org/1999/xlink"><g id="tight-bounds" transform="matrix(1,0,0,1,0.2400000000000091,-0.09999999999999432)"><svg viewBox="0 0 395.52 247.2" height="247.2" width="395.52"><g><svg></svg></g><g><svg viewBox="0 0 395.52 247.2" height="247.2" width="395.52"><mask id="e2904b88-7917-4bd1-a7f0-90d5f0de9971"><rect width="395.52" height="247.2" fill="white"></rect><g transform="matrix(1,0,0,1,76.87096669374493,37.08)" id="clone"><svg viewBox="0 0 241.77806661251012 173.04" height="173.04" width="241.77806661251012"><g><svg viewBox="0 0 241.77806661251012 173.04" height="173.04" width="241.77806661251012"><g><svg viewBox="0 0 241.77806661251012 173.04" height="173.04" width="241.77806661251012"><g><svg viewBox="0 0 241.77806661251012 173.04" height="173.04" width="241.77806661251012"><g id="SvgjsG1350"><svg viewBox="0 0 241.77806661251012 173.04" height="173.04" width="241.77806661251012" id="SvgjsSvg1349"><g><svg viewBox="0 0 241.77806661251012 173.04" height="173.04" width="241.77806661251012"><g transform="matrix(1,0,0,1,0,0)"><svg width="241.77806661251012" viewBox="-6.75 -38.70000076293945 86.98999786376953 62.55000305175781" height="173.04" data-palette-color="#ffffff"><path d="M-0.45 1.9L-2.05 3.4Q-3.2 3.4-3.6 2.65L-3.6 2.65Q-3.75 2.4-3.75 2.25-3.75 2.1-3.65 2L-3.65 2Q0.9-1.35 7.15-8.5L7.15-8.5Q4.05-10.2 2.35-12.58 0.65-14.95 0.65-16.98 0.65-19 1.9-20.15 3.15-21.3 5.55-21.3L5.55-21.3Q10.1-21.3 13.3-16.05L13.3-16.05Q14.7-17.8 17.78-21.75 20.85-25.7 22.25-27.43 23.65-29.15 25.7-31.5L25.7-31.5Q29.5-35.7 31.45-35.7L31.45-35.7Q32.95-35.65 32.95-34.1L32.95-34.1Q32.95-32.45 31.83-29.58 30.7-26.7 30.03-25.03 29.35-23.35 28.03-20.58 26.7-17.8 25.95-16.18 25.2-14.55 23.65-11.38 22.1-8.2 21.5-6.95L21.5-6.95Q25.35-7.2 27.6-8.3L27.6-8.3Q28-8.5 28.1-8.75 28.2-9 28.38-9 28.55-9 28.73-8.8 28.9-8.6 28.9-8.4L28.9-8.4Q28.9-6.7 21.1-6.05L21.1-6.05Q19.15-2 18.4-0.2L18.4-0.2Q18.2 0.2 17.8 0.2L17.8 0.2Q16.75 0.2 16.75-1.8L16.75-1.8Q16.55-3.35 16.05-6.05L16.05-6.05Q12.1-6.35 8.65-7.8L8.65-7.8 8.65-7.75Q6.5-5.1 3.83-2.33 1.15 0.45-0.45 1.9L-0.45 1.9ZM19.65-6.9L19.65-6.9Q31.1-30.7 31.1-33.45L31.1-33.45Q31.1-34.3 30.5-34.3L30.5-34.3Q29.6-34.3 27.98-32.5 26.35-30.7 25.35-29.5 24.35-28.3 22.7-26.18 21.05-24.05 19.98-22.65 18.9-21.25 16.95-18.63 15-16 14.05-14.75L14.05-14.75Q15.6-11.85 16.85-7.1L16.85-7.1Q18.05-6.9 19.65-6.9ZM12.75-15.3L12.75-15.3Q9.8-20.4 5.75-20.4L5.75-20.4Q3.95-20.4 3.05-19.65 2.15-18.9 2.15-17.43 2.15-15.95 3.83-13.78 5.5-11.6 8.35-9.95L8.35-9.95Q9.85-11.7 12.75-15.3ZM13.45-13.95L13.45-13.95Q11.85-11.8 9.75-9.15L9.75-9.15Q12.7-7.75 15.75-7.25L15.75-7.25Q14.7-11.45 13.45-13.95ZM19.2-5.95L19.2-5.95 17.1-5.95 17.7-2.8Q18.3-4 19.2-5.95ZM26.1-3.35L26.1-3.35Q25.9-3.25 25.72-3.25 25.55-3.25 25.55-3.45 25.55-3.65 25.7-3.8L25.7-3.8Q27.75-4.95 30.2-7.55L30.2-7.55Q27.95-8.25 27.95-9.53 27.95-10.8 29.65-12.38 31.35-13.95 32.85-13.95L32.85-13.95Q33.85-13.95 33.85-12.75L33.85-12.75Q33.85-10.9 32-8.8L32-8.8Q34.4-8.4 34.4-7.65L34.4-7.65Q34.4-6.65 33.52-6.13 32.65-5.6 31.5-4.25 30.35-2.9 30.35-1.55L30.35-1.55Q30.35-1.25 30.55-1 30.75-0.75 31.4-0.75 32.05-0.75 34.15-1.73 36.25-2.7 37.85-3.7L37.85-3.7 39.45-4.7Q39.5-4.6 39.5-4.3 39.5-4 39.05-3.8L39.05-3.8Q32.3 0.8 29.65 0.8L29.65 0.8Q28.35 0.8 28.35-0.5L28.35-0.5Q28.35-1.55 29.07-2.7 29.8-3.85 30.67-4.6 31.55-5.35 32.27-6.03 33-6.7 33-6.9 33-7.1 32.37-7.15 31.75-7.2 30.75-7.4L30.75-7.4Q28-4.45 26.1-3.35ZM29.2-10.3L29.2-10.3Q29.2-9.3 31.4-8.9L31.4-8.9Q32.7-10.5 32.7-11.68 32.7-12.85 31.95-12.85 31.2-12.85 30.2-11.98 29.2-11.1 29.2-10.3ZM51.3-7.8L51.3-7.8Q51.45-7.95 51.7-7.95 51.95-7.95 51.95-7.78 51.95-7.6 51.6-7.3L51.6-7.3Q49.35-5.8 45.85-5.25L45.85-5.25Q45.55-2.8 43.82-0.85 42.1 1.1 40.05 1.1L40.05 1.1Q38.35 1.1 38.35-1.3L38.35-1.3Q38.35-2.5 39.8-5.5L39.8-5.5Q37.05-6.4 37.05-8.85L37.05-8.85Q37.05-9.8 37.95-10.43 38.85-11.05 40.22-11.05 41.6-11.05 42.7-10.65L42.7-10.65Q46.75-17.2 51.45-22.48 56.15-27.75 58.7-27.75L58.7-27.75Q59.65-27.75 59.65-26.4L59.65-26.4Q59.65-24 55.17-18.68 50.7-13.35 45.35-8.4L45.35-8.4Q45.9-7.4 45.9-6.15L45.9-6.15 45.9-6Q49.4-6.5 51.3-7.8ZM44.9-9.1L44.9-9.1Q49.7-13.6 53.65-18.23 57.6-22.85 57.85-25.2L57.85-25.2Q57.8-26.3 57.2-26.3L57.2-26.3Q55.85-26.3 51.52-21.03 47.2-15.75 43.85-10.05L43.85-10.05Q44.35-9.75 44.9-9.1ZM44.8-5.1Q44.25-5.05 43.15-5.05 42.05-5.05 41.5-5.15L41.5-5.15Q41.3-4.95 41.2-4.9L41.2-4.9Q40.25-2.6 40.25-1.8L40.25-1.8Q40.25-0.55 41.15-0.55L41.15-0.55Q42.5-0.55 43.6-1.93 44.7-3.3 44.8-5.1L44.8-5.1ZM42.05-9.55L42.05-9.55Q40.9-10.15 39.9-10.15L39.9-10.15Q38.3-10.15 38.3-9.1L38.3-9.1Q38.3-7.1 40.25-6.3L40.25-6.3Q41.05-7.95 42.05-9.55ZM42.35-5.85L42.35-5.85Q42.7-5.8 43.5-5.8 44.3-5.8 44.75-5.85L44.75-5.85Q44.65-6.75 44.25-7.45L44.25-7.45Q43.25-6.5 42.35-5.85ZM43.8-8.1L43.8-8.1 43.15-8.8Q43.1-8.65 42.6-7.78 42.1-6.9 41.9-6.45L41.9-6.45Q42.55-6.95 43.8-8.1ZM59.09-5.95L59.09-5.95Q58.79-5.95 58.79-6.3L58.79-6.3 58.94-6.65Q59.84-7.5 59.84-8.1L59.84-8.1Q59.84-8.85 59.04-8.85L59.04-8.85Q57.29-8.85 54.32-6.43 51.34-4 51.34-2.1L51.34-2.1Q51.34-1.3 52.39-1.3 53.44-1.3 54.82-2.18 56.19-3.05 57.17-3.93 58.14-4.8 58.24-4.8L58.24-4.8Q58.74-4.75 58.74-4.3L58.74-4.3Q58.74-4.1 57.97-3 57.19-1.9 57.19-1.25L57.19-1.25Q57.19-0.75 58.02-0.75 58.84-0.75 60.94-1.73 63.04-2.7 64.64-3.7L64.64-3.7 66.24-4.7Q66.29-4.6 66.29-4.3 66.29-4 65.84-3.8L65.84-3.8Q59.09 0.8 56.44 0.8L56.44 0.8Q55.14 0.8 55.14-0.5L55.14-0.5Q55.14-1.05 55.34-1.65L55.34-1.65Q54.99-1.25 53.27-0.43 51.54 0.4 50.19 0.4 48.84 0.4 48.84-0.85L48.84-0.85Q48.84-3.8 52.94-6.88 57.04-9.95 59.84-9.95L59.84-9.95Q61.49-9.95 61.49-8.55L61.49-8.55Q61.49-7.75 60.49-6.85 59.49-5.95 59.09-5.95ZM71.74-9.2Q73.19-9.2 73.19-8.15 73.19-7.1 70.84-4.98 68.49-2.85 67.64-2.35L67.64-2.35Q68.09-2.5 69.31-2.5 70.54-2.5 71.72-1.68 72.89-0.85 72.89 0.23 72.89 1.3 72.69 2.05L72.69 2.05Q73.64 1.85 74.84 1.85L74.84 1.85Q77.24 1.85 77.24 3.1L77.24 3.1Q77.24 3.8 76.31 4.88 75.39 5.95 74.89 5.95 74.39 5.95 74.39 5.6L74.39 5.6Q74.39 5.4 74.94 4.98 75.49 4.55 75.49 3.95L75.49 3.95Q75.49 3.15 74.54 3.15 73.59 3.15 72.34 3.4L72.34 3.4Q70.59 8.6 65.42 14.73 60.24 20.85 57.49 20.85L57.49 20.85Q55.79 20.85 55.79 19.1L55.79 19.1Q55.79 16 60.57 10.35 65.34 4.7 70.69 2.65L70.69 2.65Q71.14 1.4 71.14 0.48 71.14-0.45 70.31-1 69.49-1.55 68.54-1.55L68.54-1.55Q66.24-1.55 64.84-0.4L64.84-0.4Q64.34 0 64.02 0 63.69 0 63.69-0.23 63.69-0.45 64.04-0.73 64.39-1 65.42-1.73 66.44-2.45 67.37-3.18 68.29-3.9 69.34-4.85L69.34-4.85Q71.74-6.95 71.74-8.2L71.74-8.2Q71.39-7.85 69.81-7.45 68.24-7.05 66.84-7.05L66.84-7.05Q63.99-7.05 63.99-8.4L63.99-8.4Q63.99-8.9 64.74-9.5 65.49-10.1 66.19-10.45 66.89-10.8 66.99-10.8L66.99-10.8Q67.29-10.8 67.34-10.55L67.34-10.55Q67.44-10.25 66.84-9.85 66.24-9.45 66.24-9 66.24-8.55 67.39-8.55 68.54-8.55 69.87-8.88 71.19-9.2 71.74-9.2L71.74-9.2ZM63.82 8.25Q60.74 11.25 59.12 14.05 57.49 16.85 57.49 18.13 57.49 19.4 58.29 19.4L58.29 19.4Q60.29 19.4 64.34 14.08 68.39 8.75 70.24 4L70.24 4Q66.89 5.25 63.82 8.25Z" opacity="1" transform="matrix(1,0,0,1,0,0)" fill="black" class="wordmark-text-0" id="SvgjsPath1348" stroke-width="5" stroke="black" stroke-linejoin="round"></path></svg></g></svg></g></svg></g></svg></g></svg></g></svg></g></svg></g></mask><g mask="url(#e2904b88-7917-4bd1-a7f0-90d5f0de9971)"><g><path xmlns="http://www.w3.org/2000/svg" d="M102.61 237.717l-10.115 9.483c-4.847 0-8.114-1.581-9.8-4.742v0c-0.632-1.054-0.948-1.897-0.948-2.529 0-0.632 0.211-1.159 0.632-1.58v0c19.177-14.12 41.938-36.248 68.28-66.384v0c-13.066-7.165-23.182-15.763-30.347-25.795-7.165-9.989-10.748-19.262-10.747-27.817 0-8.514 2.634-15.194 7.902-20.042 5.269-4.847 12.961-7.271 23.077-7.271v0c19.177 0 35.51 11.064 48.997 33.192v0c5.901-7.376 15.342-19.388 28.324-36.037 12.94-16.649 22.36-28.619 28.26-35.91 5.901-7.25 13.171-15.827 21.812-25.732v0c16.016-17.702 28.134-26.553 36.353-26.553v0c6.322 0.211 9.483 3.583 9.483 10.116v0c0 6.954-2.36 16.48-7.081 28.576-4.763 12.139-8.556 21.727-11.38 28.766-2.866 7.081-7.081 16.459-12.644 28.134-5.606 11.717-9.989 20.99-13.15 27.818-3.161 6.87-8.008 16.986-14.542 30.347-6.533 13.403-11.064 22.739-13.592 28.008v0c16.227-1.054 29.082-3.899 38.565-8.535v0c1.686-0.843 2.74-1.791 3.161-2.845 0.421-1.054 1.012-1.581 1.771-1.581 0.717 0 1.454 0.421 2.212 1.265 0.717 0.843 1.075 1.686 1.075 2.528v0c0 7.165-16.438 12.118-49.313 14.858v0c-8.219 17.07-13.909 29.398-17.07 36.985v0c-0.843 1.686-2.107 2.529-3.794 2.529v0c-4.426 0-6.638-4.215-6.638-12.645v0c-0.843-6.533-2.318-15.49-4.426-26.869v0c-16.649-1.264-32.243-4.952-46.784-11.064v0 0.316c-9.062 11.169-19.22 22.592-30.474 34.267-11.296 11.717-20.316 20.632-27.059 26.743zM229.687 182.081v0c48.26-100.313 72.39-156.265 72.39-167.856v0c0-3.583-1.264-5.374-3.793-5.374v0c-3.793 0-9.104 3.793-15.932 11.38-6.87 7.587-12.413 13.909-16.628 18.967-4.215 5.058-9.799 12.054-16.754 20.99-6.954 8.978-12.687 16.417-17.196 22.317-4.552 5.901-10.937 14.373-19.157 25.416-8.219 11.085-14.33 19.262-18.334 24.53v0c6.533 12.223 12.434 28.345 17.702 48.365v0c5.058 0.843 10.959 1.264 17.702 1.265zM186.064 128.974v0c-12.434-21.496-27.186-32.243-44.256-32.244v0c-7.587 0-13.277 1.581-17.07 4.742-3.793 3.161-5.69 7.84-5.69 14.036 0 6.238 3.54 13.93 10.621 23.076 7.039 9.188 16.564 17.26 28.577 24.214v0c6.322-7.376 15.595-18.651 27.818-33.824zM190.489 137.509v0c-6.744 9.062-14.541 19.177-23.392 30.347v0c12.434 5.901 25.078 9.905 37.934 12.012v0c-4.426-17.702-9.273-31.822-14.542-42.359zM226.842 188.087v0h-13.276l3.793 19.915c2.529-5.058 5.69-11.696 9.483-19.915z" fill="#ffffff" fill-rule="nonzero" stroke="none" stroke-width="1" stroke-linecap="butt" stroke-linejoin="miter" stroke-miterlimit="10" stroke-dasharray="" stroke-dashoffset="0" font-family="none" font-weight="none" font-size="none" text-anchor="none" style="mix-blend-mode: normal" data-fill-palette-color="tertiary"></path></g></g><g transform="matrix(1,0,0,1,76.87096669374493,37.08)"><svg viewBox="0 0 241.77806661251012 173.04" height="173.04" width="241.77806661251012"><g><svg viewBox="0 0 241.77806661251012 173.04" height="173.04" width="241.77806661251012"><g><svg viewBox="0 0 241.77806661251012 173.04" height="173.04" width="241.77806661251012"><g><svg viewBox="0 0 241.77806661251012 173.04" height="173.04" width="241.77806661251012"><g id="textblocktransform"><svg viewBox="0 0 241.77806661251012 173.04" height="173.04" width="241.77806661251012" id="textblock"><g><svg viewBox="0 0 241.77806661251012 173.04" height="173.04" width="241.77806661251012"><g transform="matrix(1,0,0,1,0,0)"><svg width="241.77806661251012" viewBox="-6.75 -38.70000076293945 86.98999786376953 62.55000305175781" height="173.04" data-palette-color="#ffffff"><path d="M-0.45 1.9L-2.05 3.4Q-3.2 3.4-3.6 2.65L-3.6 2.65Q-3.75 2.4-3.75 2.25-3.75 2.1-3.65 2L-3.65 2Q0.9-1.35 7.15-8.5L7.15-8.5Q4.05-10.2 2.35-12.58 0.65-14.95 0.65-16.98 0.65-19 1.9-20.15 3.15-21.3 5.55-21.3L5.55-21.3Q10.1-21.3 13.3-16.05L13.3-16.05Q14.7-17.8 17.78-21.75 20.85-25.7 22.25-27.43 23.65-29.15 25.7-31.5L25.7-31.5Q29.5-35.7 31.45-35.7L31.45-35.7Q32.95-35.65 32.95-34.1L32.95-34.1Q32.95-32.45 31.83-29.58 30.7-26.7 30.03-25.03 29.35-23.35 28.03-20.58 26.7-17.8 25.95-16.18 25.2-14.55 23.65-11.38 22.1-8.2 21.5-6.95L21.5-6.95Q25.35-7.2 27.6-8.3L27.6-8.3Q28-8.5 28.1-8.75 28.2-9 28.38-9 28.55-9 28.73-8.8 28.9-8.6 28.9-8.4L28.9-8.4Q28.9-6.7 21.1-6.05L21.1-6.05Q19.15-2 18.4-0.2L18.4-0.2Q18.2 0.2 17.8 0.2L17.8 0.2Q16.75 0.2 16.75-1.8L16.75-1.8Q16.55-3.35 16.05-6.05L16.05-6.05Q12.1-6.35 8.65-7.8L8.65-7.8 8.65-7.75Q6.5-5.1 3.83-2.33 1.15 0.45-0.45 1.9L-0.45 1.9ZM19.65-6.9L19.65-6.9Q31.1-30.7 31.1-33.45L31.1-33.45Q31.1-34.3 30.5-34.3L30.5-34.3Q29.6-34.3 27.98-32.5 26.35-30.7 25.35-29.5 24.35-28.3 22.7-26.18 21.05-24.05 19.98-22.65 18.9-21.25 16.95-18.63 15-16 14.05-14.75L14.05-14.75Q15.6-11.85 16.85-7.1L16.85-7.1Q18.05-6.9 19.65-6.9ZM12.75-15.3L12.75-15.3Q9.8-20.4 5.75-20.4L5.75-20.4Q3.95-20.4 3.05-19.65 2.15-18.9 2.15-17.43 2.15-15.95 3.83-13.78 5.5-11.6 8.35-9.95L8.35-9.95Q9.85-11.7 12.75-15.3ZM13.45-13.95L13.45-13.95Q11.85-11.8 9.75-9.15L9.75-9.15Q12.7-7.75 15.75-7.25L15.75-7.25Q14.7-11.45 13.45-13.95ZM19.2-5.95L19.2-5.95 17.1-5.95 17.7-2.8Q18.3-4 19.2-5.95ZM26.1-3.35L26.1-3.35Q25.9-3.25 25.72-3.25 25.55-3.25 25.55-3.45 25.55-3.65 25.7-3.8L25.7-3.8Q27.75-4.95 30.2-7.55L30.2-7.55Q27.95-8.25 27.95-9.53 27.95-10.8 29.65-12.38 31.35-13.95 32.85-13.95L32.85-13.95Q33.85-13.95 33.85-12.75L33.85-12.75Q33.85-10.9 32-8.8L32-8.8Q34.4-8.4 34.4-7.65L34.4-7.65Q34.4-6.65 33.52-6.13 32.65-5.6 31.5-4.25 30.35-2.9 30.35-1.55L30.35-1.55Q30.35-1.25 30.55-1 30.75-0.75 31.4-0.75 32.05-0.75 34.15-1.73 36.25-2.7 37.85-3.7L37.85-3.7 39.45-4.7Q39.5-4.6 39.5-4.3 39.5-4 39.05-3.8L39.05-3.8Q32.3 0.8 29.65 0.8L29.65 0.8Q28.35 0.8 28.35-0.5L28.35-0.5Q28.35-1.55 29.07-2.7 29.8-3.85 30.67-4.6 31.55-5.35 32.27-6.03 33-6.7 33-6.9 33-7.1 32.37-7.15 31.75-7.2 30.75-7.4L30.75-7.4Q28-4.45 26.1-3.35ZM29.2-10.3L29.2-10.3Q29.2-9.3 31.4-8.9L31.4-8.9Q32.7-10.5 32.7-11.68 32.7-12.85 31.95-12.85 31.2-12.85 30.2-11.98 29.2-11.1 29.2-10.3ZM51.3-7.8L51.3-7.8Q51.45-7.95 51.7-7.95 51.95-7.95 51.95-7.78 51.95-7.6 51.6-7.3L51.6-7.3Q49.35-5.8 45.85-5.25L45.85-5.25Q45.55-2.8 43.82-0.85 42.1 1.1 40.05 1.1L40.05 1.1Q38.35 1.1 38.35-1.3L38.35-1.3Q38.35-2.5 39.8-5.5L39.8-5.5Q37.05-6.4 37.05-8.85L37.05-8.85Q37.05-9.8 37.95-10.43 38.85-11.05 40.22-11.05 41.6-11.05 42.7-10.65L42.7-10.65Q46.75-17.2 51.45-22.48 56.15-27.75 58.7-27.75L58.7-27.75Q59.65-27.75 59.65-26.4L59.65-26.4Q59.65-24 55.17-18.68 50.7-13.35 45.35-8.4L45.35-8.4Q45.9-7.4 45.9-6.15L45.9-6.15 45.9-6Q49.4-6.5 51.3-7.8ZM44.9-9.1L44.9-9.1Q49.7-13.6 53.65-18.23 57.6-22.85 57.85-25.2L57.85-25.2Q57.8-26.3 57.2-26.3L57.2-26.3Q55.85-26.3 51.52-21.03 47.2-15.75 43.85-10.05L43.85-10.05Q44.35-9.75 44.9-9.1ZM44.8-5.1Q44.25-5.05 43.15-5.05 42.05-5.05 41.5-5.15L41.5-5.15Q41.3-4.95 41.2-4.9L41.2-4.9Q40.25-2.6 40.25-1.8L40.25-1.8Q40.25-0.55 41.15-0.55L41.15-0.55Q42.5-0.55 43.6-1.93 44.7-3.3 44.8-5.1L44.8-5.1ZM42.05-9.55L42.05-9.55Q40.9-10.15 39.9-10.15L39.9-10.15Q38.3-10.15 38.3-9.1L38.3-9.1Q38.3-7.1 40.25-6.3L40.25-6.3Q41.05-7.95 42.05-9.55ZM42.35-5.85L42.35-5.85Q42.7-5.8 43.5-5.8 44.3-5.8 44.75-5.85L44.75-5.85Q44.65-6.75 44.25-7.45L44.25-7.45Q43.25-6.5 42.35-5.85ZM43.8-8.1L43.8-8.1 43.15-8.8Q43.1-8.65 42.6-7.78 42.1-6.9 41.9-6.45L41.9-6.45Q42.55-6.95 43.8-8.1ZM59.09-5.95L59.09-5.95Q58.79-5.95 58.79-6.3L58.79-6.3 58.94-6.65Q59.84-7.5 59.84-8.1L59.84-8.1Q59.84-8.85 59.04-8.85L59.04-8.85Q57.29-8.85 54.32-6.43 51.34-4 51.34-2.1L51.34-2.1Q51.34-1.3 52.39-1.3 53.44-1.3 54.82-2.18 56.19-3.05 57.17-3.93 58.14-4.8 58.24-4.8L58.24-4.8Q58.74-4.75 58.74-4.3L58.74-4.3Q58.74-4.1 57.97-3 57.19-1.9 57.19-1.25L57.19-1.25Q57.19-0.75 58.02-0.75 58.84-0.75 60.94-1.73 63.04-2.7 64.64-3.7L64.64-3.7 66.24-4.7Q66.29-4.6 66.29-4.3 66.29-4 65.84-3.8L65.84-3.8Q59.09 0.8 56.44 0.8L56.44 0.8Q55.14 0.8 55.14-0.5L55.14-0.5Q55.14-1.05 55.34-1.65L55.34-1.65Q54.99-1.25 53.27-0.43 51.54 0.4 50.19 0.4 48.84 0.4 48.84-0.85L48.84-0.85Q48.84-3.8 52.94-6.88 57.04-9.95 59.84-9.95L59.84-9.95Q61.49-9.95 61.49-8.55L61.49-8.55Q61.49-7.75 60.49-6.85 59.49-5.95 59.09-5.95ZM71.74-9.2Q73.19-9.2 73.19-8.15 73.19-7.1 70.84-4.98 68.49-2.85 67.64-2.35L67.64-2.35Q68.09-2.5 69.31-2.5 70.54-2.5 71.72-1.68 72.89-0.85 72.89 0.23 72.89 1.3 72.69 2.05L72.69 2.05Q73.64 1.85 74.84 1.85L74.84 1.85Q77.24 1.85 77.24 3.1L77.24 3.1Q77.24 3.8 76.31 4.88 75.39 5.95 74.89 5.95 74.39 5.95 74.39 5.6L74.39 5.6Q74.39 5.4 74.94 4.98 75.49 4.55 75.49 3.95L75.49 3.95Q75.49 3.15 74.54 3.15 73.59 3.15 72.34 3.4L72.34 3.4Q70.59 8.6 65.42 14.73 60.24 20.85 57.49 20.85L57.49 20.85Q55.79 20.85 55.79 19.1L55.79 19.1Q55.79 16 60.57 10.35 65.34 4.7 70.69 2.65L70.69 2.65Q71.14 1.4 71.14 0.48 71.14-0.45 70.31-1 69.49-1.55 68.54-1.55L68.54-1.55Q66.24-1.55 64.84-0.4L64.84-0.4Q64.34 0 64.02 0 63.69 0 63.69-0.23 63.69-0.45 64.04-0.73 64.39-1 65.42-1.73 66.44-2.45 67.37-3.18 68.29-3.9 69.34-4.85L69.34-4.85Q71.74-6.95 71.74-8.2L71.74-8.2Q71.39-7.85 69.81-7.45 68.24-7.05 66.84-7.05L66.84-7.05Q63.99-7.05 63.99-8.4L63.99-8.4Q63.99-8.9 64.74-9.5 65.49-10.1 66.19-10.45 66.89-10.8 66.99-10.8L66.99-10.8Q67.29-10.8 67.34-10.55L67.34-10.55Q67.44-10.25 66.84-9.85 66.24-9.45 66.24-9 66.24-8.55 67.39-8.55 68.54-8.55 69.87-8.88 71.19-9.2 71.74-9.2L71.74-9.2ZM63.82 8.25Q60.74 11.25 59.12 14.05 57.49 16.85 57.49 18.13 57.49 19.4 58.29 19.4L58.29 19.4Q60.29 19.4 64.34 14.08 68.39 8.75 70.24 4L70.24 4Q66.89 5.25 63.82 8.25Z" opacity="1" transform="matrix(1,0,0,1,0,0)" fill="#ffffff" class="wordmark-text-0" data-fill-palette-color="primary" id="text-0"></path></svg></g></svg></g></svg></g></svg></g></svg></g></svg></g></svg></g></svg></g><defs></defs></svg><rect width="395.52" height="247.2" fill="none" stroke="none" visibility="hidden"></rect></g></svg></g></svg>